<svg width="128" height="128" viewBox="0 0 128 128" fill="none" xmlns="http://www.w3.org/2000/svg">
<path d="M63.9616 90.8021C49.1648 90.8021 37.1328 78.7701 37.1328 63.9733C37.1328 49.1765 49.1648 37.1445 63.9616 37.1445C78.7584 37.1445 90.7904 49.1765 90.7904 63.9733C90.7904 78.7701 78.7584 90.8021 63.9616 90.8021V90.8021ZM63.9616 47.3845C54.8096 47.3845 47.3728 54.8213 47.3728 63.9733C47.3728 73.1253 54.8096 80.5621 63.9616 80.5621C73.1136 80.5621 80.5504 73.1253 80.5504 63.9733C80.5504 54.8213 73.1136 47.3845 63.9616 47.3845Z" fill="url(#paint0_linear_1939_85577)"/>
<path fill-rule="evenodd" clip-rule="evenodd" d="M53.1325 120.256H74.8157C76.2237 120.256 77.3757 119.104 77.3757 117.696V106.585C79.7949 105.766 82.3421 104.716 84.6333 103.577L92.4925 111.436C93.4909 112.435 95.1165 112.435 96.1149 111.436L111.449 96.1021C112.448 95.1037 112.448 93.4781 111.449 92.4797L103.59 84.6461C104.716 82.3421 105.779 79.7949 106.598 77.3757H117.708C119.116 77.3757 120.268 76.2237 120.268 74.8157V53.1325C120.268 51.7245 119.116 50.5725 117.708 50.5725H106.598C105.779 48.1533 104.716 45.6061 103.59 43.3149L111.449 35.4557C112.448 34.4573 112.448 32.8317 111.449 31.8333L96.1149 16.4989C95.1165 15.5005 93.4909 15.5005 92.4925 16.4989L84.6333 24.3581C82.3421 23.2189 79.7949 22.1693 77.3757 21.3501V10.2397C77.3757 8.83169 76.2237 7.67969 74.8157 7.67969H53.1325C51.7245 7.67969 50.5725 8.83169 50.5725 10.2397V21.3501C48.1533 22.1693 45.6061 23.2189 43.3149 24.3581L35.4557 16.4989C34.4573 15.5005 32.8317 15.5005 31.8333 16.4989L16.4989 31.8333C15.5005 32.8317 15.5005 34.4573 16.4989 35.4557L24.3581 43.3149C23.2189 45.5933 22.1693 48.1405 21.3501 50.5597H10.2397C8.83169 50.5597 7.67969 51.7117 7.67969 53.1197V74.8029C7.67969 76.2109 8.83169 77.3629 10.2397 77.3629H21.3501C22.1693 79.7821 23.2189 82.3293 24.3581 84.6205L16.4989 92.4797C15.5005 93.4781 15.5005 95.1037 16.4989 96.1021L31.8333 111.436C32.8317 112.435 34.4573 112.435 35.4557 111.436L43.3149 103.577C45.6061 104.716 48.1533 105.766 50.5725 106.585V117.696C50.5725 119.104 51.7245 120.256 53.1325 120.256ZM67.1357 110.016H60.8125V98.6621L56.8317 97.7533C53.3245 96.9597 48.1917 94.8349 45.1453 92.9149L41.6893 90.7389L33.6509 98.7773L29.1709 94.2973L37.2093 86.2589L35.0333 82.8029C33.1261 79.7565 30.9885 74.6237 30.1949 71.1165L29.2861 67.1357H17.9197V60.8125H29.2733L30.1821 56.8317C30.9757 53.3245 33.1005 48.1917 35.0205 45.1453L37.1965 41.6893L29.1581 33.6509L33.6381 29.1709L41.6765 37.2093L45.1325 35.0333C48.1917 33.1261 53.3117 30.9885 56.8189 30.1949L60.7997 29.2861V17.9197H67.1229V29.2989L71.1037 30.2077C74.6109 31.0013 79.7437 33.1261 82.7901 35.0461L86.2461 37.2221L94.2845 29.1837L98.7645 33.6637L90.7261 41.7021L92.9021 45.1581C94.8221 48.2045 96.9469 53.3245 97.7405 56.8317L98.6493 60.8125H110.016V67.1357H98.6493L97.7405 71.1165C96.9469 74.6237 94.8093 79.7693 92.8893 82.8157L90.7133 86.2845L98.7645 94.2973L94.2973 98.7645L86.2589 90.7261L82.8029 92.9021C79.7565 94.8093 74.6237 96.9469 71.1165 97.7405L67.1357 98.6493V110.016ZM62.9886 54.899C63.4622 54.2078 64.4862 54.2078 64.9598 54.899C67.3534 58.3678 69.5678 60.5822 73.0366 62.9758C73.7278 63.4494 73.7278 64.4734 73.0366 64.947C69.5678 67.3406 67.3534 69.555 64.9598 73.0238C64.4862 73.715 63.4622 73.715 62.9886 73.0238C60.595 69.555 58.3806 67.3406 54.9118 64.947C54.2206 64.4734 54.2206 63.4494 54.9118 62.9758C58.3806 60.5822 60.595 58.3678 62.9886 54.899Z" fill="#001991"/>
<defs>
<linearGradient id="paint0_linear_1939_85577" x1="36.8289" y1="90.6763" x2="100.452" y2="55.3817" gradientUnits="userSpaceOnUse">
<stop stop-color="#00A0DC"/>
<stop offset="1" stop-color="#9FDAF8"/>
</linearGradient>
</defs>
</svg>
