<svg width="128" height="128" viewBox="0 0 128 128" fill="none" xmlns="http://www.w3.org/2000/svg">
<path fill-rule="evenodd" clip-rule="evenodd" d="M94.2462 66.5853C92.9662 66.6365 91.8782 65.6509 91.8782 64.3581V38.4509C91.8782 37.2093 90.867 36.1981 89.6254 36.1981H76.9662C75.7246 36.1981 74.7134 35.1869 74.7134 33.9453V28.1981C74.7134 26.9565 75.7246 25.9453 76.9662 25.9453H99.8654C101.107 25.9453 102.118 26.9565 102.118 28.1981V64.6269C102.118 66.0093 100.838 67.0205 99.507 66.8413C98.1758 66.6621 96.819 66.5597 95.4494 66.5597C95.0526 66.5597 94.643 66.5725 94.2462 66.5853ZM66.1115 94.1312C66.0859 94.7328 66.0603 95.3344 66.0603 95.9488C66.0603 97.1264 66.1243 98.2912 66.2651 99.4304C66.4187 100.774 65.3947 101.965 64.0379 101.965H28.3387C27.0971 101.965 26.0859 100.954 26.0859 99.712V75.52C26.0859 74.2784 27.0971 73.2672 28.3387 73.2672H34.0859C35.3275 73.2672 36.3387 74.2784 36.3387 75.52V89.472C36.3387 90.7136 37.3499 91.7248 38.5915 91.7248H63.8715C65.1771 91.7248 66.1883 92.8256 66.1115 94.1312Z" fill="url(#paint0_linear_1939_85576)"/>
<path fill-rule="evenodd" clip-rule="evenodd" d="M10.2397 68.1597H67.0461C68.4541 68.1597 69.6061 67.0077 69.6061 65.5997V10.2397C69.6061 8.83169 68.4541 7.67969 67.0461 7.67969H10.2397C8.83169 7.67969 7.67969 8.83169 7.67969 10.2397V65.5997C7.67969 67.0077 8.83169 68.1597 10.2397 68.1597ZM59.3661 57.9197H17.9197V17.9197H59.3661V57.9197ZM71.1934 95.9613C71.1934 109.337 82.0734 120.23 95.4622 120.23C108.838 120.23 119.731 109.337 119.731 95.9613C119.731 82.5853 108.838 71.6925 95.4622 71.6925C82.0862 71.6925 71.1934 82.5853 71.1934 95.9613ZM81.4334 95.9485C81.4334 88.2173 87.7182 81.9197 95.4622 81.9197C103.193 81.9197 109.491 88.2173 109.491 95.9485C109.491 103.68 103.193 109.977 95.4622 109.977C87.731 109.977 81.4334 103.68 81.4334 95.9485Z" fill="#001991"/>
<defs>
<linearGradient id="paint0_linear_1939_85576" x1="25.6552" y1="101.786" x2="115.802" y2="51.7699" gradientUnits="userSpaceOnUse">
<stop stop-color="#00A0DC"/>
<stop offset="1" stop-color="#9FDAF8"/>
</linearGradient>
</defs>
</svg>
