<svg width="128" height="128" viewBox="0 0 128 128" fill="none" xmlns="http://www.w3.org/2000/svg">
<path d="M63.9997 7.67969C54.5917 7.67969 7.67969 8.48609 7.67969 24.3197V103.193C7.67969 119.04 54.5917 119.833 63.9997 119.833C73.4077 119.833 120.32 119.027 120.32 103.193V24.3197C120.32 8.48609 73.4077 7.67969 63.9997 7.67969ZM110.08 62.9373C107.084 65.4973 91.1101 70.1821 63.9997 70.1821C36.8893 70.1821 20.9149 65.5613 17.9197 62.9373V34.8541C32.2813 40.5885 57.3949 40.9597 63.9997 40.9597C70.6045 40.9597 95.7181 40.5629 110.08 34.8285V62.9373ZM63.9997 17.9197C88.4349 17.9197 103.833 21.6701 108.8 24.3197C103.808 26.9821 88.4093 30.7197 63.9997 30.7197C39.5901 30.7197 24.1661 26.9949 19.1997 24.3197C24.1661 21.6701 39.5645 17.9197 63.9997 17.9197ZM63.9997 109.606C36.9149 109.606 20.9405 104.96 17.9197 102.4V74.2397C32.2813 79.9741 57.3949 80.3837 63.9997 80.3837C70.6045 80.3837 95.7181 79.9741 110.08 74.2397V102.4C107.059 104.96 91.0845 109.606 63.9997 109.606Z" fill="#021884"/>
<path d="M94.7842 54.322C92.1474 56.0885 89.8818 58.354 88.1153 60.9908C88.0248 61.1228 87.9035 61.2307 87.7619 61.3053C87.6203 61.3799 87.4626 61.4189 87.3026 61.4189C87.1425 61.4189 86.9848 61.3799 86.8432 61.3053C86.7016 61.2307 86.5803 61.1228 86.4898 60.9908C84.7303 58.3482 82.4635 56.0814 79.821 54.322C79.6915 54.2296 79.586 54.1077 79.5131 53.9663C79.4403 53.8249 79.4023 53.6682 79.4023 53.5092C79.4023 53.3501 79.4403 53.1934 79.5131 53.052C79.586 52.9107 79.6915 52.7887 79.821 52.6964C82.4642 50.9588 84.7319 48.7086 86.4898 46.0788C86.5821 45.9493 86.704 45.8438 86.8454 45.771C86.9868 45.6981 87.1435 45.6602 87.3026 45.6602C87.4616 45.6602 87.6183 45.6981 87.7597 45.771C87.9011 45.8438 88.023 45.9493 88.1153 46.0788C89.8748 48.7213 92.1416 50.9881 94.7842 52.7476C94.9061 52.8394 95.005 52.9583 95.0731 53.0949C95.1412 53.2316 95.1767 53.3821 95.1767 53.5348C95.1767 53.6874 95.1412 53.838 95.0731 53.9746C95.005 54.1112 94.9061 54.2301 94.7842 54.322ZM94.7842 92.3764C92.1465 90.6319 89.8801 88.3829 88.1153 85.7588C88.023 85.6293 87.9011 85.5238 87.7597 85.451C87.6183 85.3781 87.4616 85.3402 87.3026 85.3402C87.1435 85.3402 86.9868 85.3781 86.8454 85.451C86.704 85.5238 86.5821 85.6293 86.4898 85.7588C84.7373 88.407 82.4692 90.6751 79.821 92.4276C79.6915 92.5199 79.586 92.6419 79.5131 92.7832C79.4403 92.9246 79.4023 93.0813 79.4023 93.2404C79.4023 93.3994 79.4403 93.5561 79.5131 93.6975C79.586 93.8389 79.6915 93.9608 79.821 94.0532C82.4635 95.8126 84.7303 98.0794 86.4898 100.722C86.5803 100.854 86.7016 100.962 86.8432 101.037C86.9848 101.111 87.1425 101.15 87.3026 101.15C87.4626 101.15 87.6203 101.111 87.7619 101.037C87.9035 100.962 88.0248 100.854 88.1153 100.722C89.8818 98.0852 92.1474 95.8197 94.7842 94.0532C94.9271 93.9648 95.045 93.8415 95.1268 93.6947C95.2086 93.548 95.2516 93.3828 95.2516 93.2148C95.2516 93.0468 95.2086 92.8815 95.1268 92.7348C95.045 92.5881 94.9271 92.4647 94.7842 92.3764Z" fill="url(#paint0_linear_1939_85579)"/>
<defs>
<linearGradient id="paint0_linear_1939_85579" x1="73.229" y1="87.4356" x2="101.389" y2="59.2756" gradientUnits="userSpaceOnUse">
<stop offset="0.5" stop-color="#0498D7"/>
<stop offset="1" stop-color="#7CD0E9"/>
</linearGradient>
</defs>
</svg>
