<svg width="128" height="128" viewBox="0 0 128 128" fill="none" xmlns="http://www.w3.org/2000/svg">
<path d="M125.439 36.1597V15.8973C125.44 14.8177 125.229 13.7483 124.817 12.7506C124.404 11.7528 123.799 10.8462 123.035 10.0828C122.272 9.31941 121.365 8.71417 120.368 8.30179C119.37 7.88942 118.301 7.67801 117.221 7.6797H10.7762C9.69658 7.67801 8.62724 7.88942 7.62947 8.30179C6.63171 8.71417 5.72513 9.31941 4.96172 10.0828C4.19831 10.8462 3.59307 11.7528 3.1807 12.7506C2.76832 13.7483 2.55692 14.8177 2.5586 15.8973V36.1469V81.3821C2.55692 82.4617 2.76832 83.5311 3.1807 84.5288C3.59307 85.5266 4.19831 86.4332 4.96172 87.1966C5.72513 87.96 6.63171 88.5652 7.62947 88.9776C8.62724 89.39 9.69658 89.6014 10.7762 89.5997H45.861V110.08H35.8386C35.1596 110.08 34.5085 110.349 34.0284 110.829C33.5483 111.31 33.2786 111.961 33.2786 112.64V117.76C33.2786 118.439 33.5483 119.09 34.0284 119.57C34.5085 120.05 35.1596 120.32 35.8386 120.32H92.1586C92.8376 120.32 93.4887 120.05 93.9688 119.57C94.4489 119.09 94.7186 118.439 94.7186 117.76V112.64C94.7186 111.961 94.4489 111.31 93.9688 110.829C93.4887 110.349 92.8376 110.08 92.1586 110.08H80.8562V89.5997H117.221C118.301 89.6014 119.37 89.39 120.368 88.9776C121.365 88.5652 122.272 87.96 123.035 87.1966C123.799 86.4332 124.404 85.5266 124.817 84.5288C125.229 83.5311 125.44 82.4617 125.439 81.3821V36.1597ZM70.6162 110.08H56.101V89.5997H70.6162V110.08ZM82.1362 79.3597H12.7986V17.9197H115.199V79.3597H82.1362Z" fill="#001991"/>
<path fill-rule="evenodd" clip-rule="evenodd" d="M73.6867 40.7294C70.2666 43.0037 67.3338 45.9365 65.0595 49.3566C64.942 49.5282 64.7844 49.6686 64.6004 49.7656C64.4164 49.8626 64.2115 49.9133 64.0035 49.9133C63.7955 49.9133 63.5906 49.8626 63.4066 49.7656C63.2226 49.6686 63.065 49.5282 62.9475 49.3566C60.6695 45.9396 57.7374 43.0074 54.3203 40.7294C54.1487 40.6119 54.0083 40.4543 53.9113 40.2703C53.8144 40.0863 53.7637 39.8814 53.7637 39.6734C53.7637 39.4654 53.8144 39.2606 53.9113 39.0766C54.0083 38.8926 54.1487 38.735 54.3203 38.6174C57.7404 36.3431 60.6732 33.4103 62.9475 29.9902C63.065 29.8186 63.2226 29.6783 63.4066 29.5813C63.5906 29.4843 63.7955 29.4336 64.0035 29.4336C64.2115 29.4336 64.4164 29.4843 64.6004 29.5813C64.7844 29.6783 64.942 29.8186 65.0595 29.9902C67.3295 33.4138 70.2631 36.3474 73.6867 38.6174C73.8583 38.735 73.9987 38.8926 74.0957 39.0766C74.1926 39.2606 74.2433 39.4654 74.2433 39.6734C74.2433 39.8814 74.1926 40.0863 74.0957 40.2703C73.9987 40.4543 73.8583 40.6119 73.6867 40.7294ZM48.0739 56.0766C44.6535 58.3557 41.7208 61.2928 39.4467 64.7166C39.3292 64.8882 39.1716 65.0286 38.9876 65.1256C38.8036 65.2226 38.5987 65.2733 38.3907 65.2733C38.1827 65.2733 37.9779 65.2226 37.7939 65.1256C37.6099 65.0286 37.4523 64.8882 37.3347 64.7166C35.0642 61.2899 32.1309 58.3523 28.7075 56.0766C28.5385 55.9587 28.4005 55.8016 28.3052 55.6189C28.2099 55.4362 28.1602 55.2331 28.1602 55.027C28.1602 54.8209 28.2099 54.6179 28.3052 54.4351C28.4005 54.2524 28.5385 54.0954 28.7075 53.9774C32.1276 51.7031 35.0604 48.7703 37.3347 45.3502C37.4523 45.1786 37.6099 45.0383 37.7939 44.9413C37.9779 44.8443 38.1827 44.7936 38.3907 44.7936C38.5987 44.7936 38.8036 44.8443 38.9876 44.9413C39.1716 45.0383 39.3292 45.1786 39.4467 45.3502C41.7247 48.7673 44.6569 51.6994 48.0739 53.9774C48.2429 54.0954 48.3809 54.2524 48.4762 54.4351C48.5715 54.6179 48.6213 54.8209 48.6213 55.027C48.6213 55.2331 48.5715 55.4362 48.4762 55.6189C48.3809 55.8016 48.2429 55.9587 48.0739 56.0766ZM90.6595 64.7166C92.9301 61.2899 95.8634 58.3523 99.2867 56.0766C99.4557 55.9587 99.5937 55.8016 99.689 55.6189C99.7843 55.4362 99.8341 55.2331 99.8341 55.027C99.8341 54.8209 99.7843 54.6179 99.689 54.4351C99.5937 54.2524 99.4557 54.0954 99.2867 53.9774C95.8666 51.7031 92.9338 48.7703 90.6595 45.3502C90.542 45.1786 90.3844 45.0383 90.2004 44.9413C90.0164 44.8443 89.8115 44.7936 89.6035 44.7936C89.3955 44.7936 89.1906 44.8443 89.0066 44.9413C88.8226 45.0383 88.6651 45.1786 88.5475 45.3502C86.2695 48.7673 83.3374 51.6994 79.9203 53.9774C79.7513 54.0954 79.6133 54.2524 79.518 54.4351C79.4227 54.6179 79.3729 54.8209 79.3729 55.027C79.3729 55.2331 79.4227 55.4362 79.518 55.6189C79.6133 55.8016 79.7513 55.9587 79.9203 56.0766C83.3408 58.3557 86.2735 61.2928 88.5475 64.7166C88.6651 64.8882 88.8226 65.0286 89.0066 65.1256C89.1906 65.2226 89.3955 65.2733 89.6035 65.2733C89.8115 65.2733 90.0164 65.2226 90.2004 65.1256C90.3844 65.0286 90.542 64.8882 90.6595 64.7166Z" fill="url(#paint0_linear_1939_85574)"/>
<defs>
<linearGradient id="paint0_linear_1939_85574" x1="27.7541" y1="65.1892" x2="77.5754" y2="9.91753" gradientUnits="userSpaceOnUse">
<stop stop-color="#00A0DC"/>
<stop offset="1" stop-color="#9FDAF8"/>
</linearGradient>
</defs>
</svg>
